<svg width="24" height="24" viewBox="0 0 24 24">
  <path d="M21.397 2.604A2.048 2.048 0 0019.938 2c-.55 0-1.067.214-1.457.604l-5.904 5.904c-.665.41-6.555 4.044-8.561 5.325a4.267 4.267 0 00-.714.58A4.415 4.415 0 002 17.556c0 1.187.463 2.303 1.302 3.142A4.415 4.415 0 006.444 22a4.415 4.415 0 003.143-1.302c.228-.227.423-.467.58-.714 1.282-2.006 4.916-7.896 5.325-8.56l5.905-5.904a2.064 2.064 0 000-2.917zM3.237 17.556c0-.857.334-1.662.94-2.268.164-.165.334-.303.505-.412 1.795-1.147 6.725-4.192 8.189-5.096l.237.237-9.327 9.327a3.184 3.184 0 01-.543-1.788zm5.887 1.762a3.025 3.025 0 01-.411.505 3.187 3.187 0 01-2.269.94 3.184 3.184 0 01-1.788-.544l9.327-9.327.238.236c-.904 1.465-3.95 6.394-5.097 8.19zm11.4-14.673l-5.519 5.518-1.167-1.166 5.519-5.519a.82.82 0 01.583-.241.825.825 0 01.583 1.408z" />
</svg>
